# xmcd
#
# Track frame offsets:
#	150
#	18094
#	37729
#	48761
#	65735
#	77000
#	91084
#	108634
#	121648
#	138940
#	153510
#	166729
#	182561
#	197578
#	211063
#	228532
#	241012
#	257521
#	272478
#	289063
#
# Disc length: 4044 seconds
#
# Revision: 4
# Processed by: cddbd v1.4PL0 Copyright (c) Steve Scherf et al.
# Submitted via: audiograbber 1.80
#
DISCID=f40fca14
DTITLE=Alan Jackson - The Greatest Hits Collection
DYEAR=1900
DGENRE=Country
TTITLE0=Chattahoochee
TTITLE1=Gone Country
TTITLE2=She's Got The Rhythm
TTITLE3=Midnight In Montgomery
TTITLE4=Tall, Tall Trees
TTITLE5=Chasin' That Neon Rainbow
TTITLE6=I'll Try
TTITLE7=Don't Rock The Jukebox
TTITLE8=Livin' On Love
TTITLE9=Summertime Blues
TTITLE10=Love's Got A Hold On You
TTITLE11=(Who Says) You Can't Have It All
TTITLE12=Home
TTITLE13=Wanted
TTITLE14=I Don't Even Know Your Name
TTITLE15=Dallas
TTITLE16=Here In The Real World
TTITLE17=Someday
TTITLE18=Mercury Blues
TTITLE19=I'd Love You All Over Again
EXTD=ID3G:   2
EXTT0=
EXTT1=
EXTT2=
EXTT3=
EXTT4=
EXTT5=
EXTT6=
EXTT7=
EXTT8=
EXTT9=
EXTT10=
EXTT11=
EXTT12=
EXTT13=
EXTT14=
EXTT15=
EXTT16=
EXTT17=
EXTT18=
EXTT19=
PLAYORDER=
